# xmcd
# Copyright (C) 1995-1998 Ti Kan
#
# Track frame offsets:
#       150
#       12968
#       25721
#       40775
#       57116
#       74316
#       91593
#       106995
#       128529
#       144550
#       152769
#       176156
#
# Disc length: 2862 seconds
#
# Revision: 2
# Processed by: cddbd v1.5.1PL2 Copyright (c) Steve Scherf et al.
# Submitted via: CD-Transfer v1.0
#
DISCID=8f0b2c0c
DTITLE=Bulais - Fanzögnas
DYEAR=2006
DGENRE=
TTITLE0=La Via
TTITLE1=Engiadina
TTITLE2=Orb
TTITLE3=Mias S-Charpas
TTITLE4=Sainta
TTITLE5=Giavüschs
TTITLE6=Fanzögnas
TTITLE7=Anguels
TTITLE8=La Glüna
TTITLE9=Adüna
TTITLE10=Sbrais Illa Not
TTITLE11=Sbrais Illa Not (Dreamis Remix)
EXTD=
EXTT0=
EXTT1=
EXTT2=
EXTT3=
EXTT4=
EXTT5=
EXTT6=
EXTT7=
EXTT8=
EXTT9=
EXTT10=
EXTT11=
PLAYORDER=
